<mxfile host="app.diagrams.net" modified="2024-02-02T03:12:23.997Z" agent="Mozilla/5.0 (Windows NT 10.0; Win64; x64) AppleWebKit/537.36 (KHTML, like Gecko) Chrome/120.0.0.0 Safari/537.36" etag="U8f1lfT9Mf_kwNSzkb1k" version="23.0.2" type="github">
  <diagram name="Halaman-1" id="I9v1mh5lTL7bm9jNicTe">
    <mxGraphModel dx="1588" dy="914" grid="1" gridSize="10" guides="1" tooltips="1" connect="1" arrows="1" fold="1" page="1" pageScale="1" pageWidth="827" pageHeight="1169" math="0" shadow="0">
      <root>
        <mxCell id="0" />
        <mxCell id="1" parent="0" />
        <mxCell id="HDesqdfmbU_KBpD-CuUh-3" value="" style="rounded=0;whiteSpace=wrap;html=1;" vertex="1" parent="1">
          <mxGeometry x="230" y="190" width="410" height="640" as="geometry" />
        </mxCell>
        <mxCell id="HDesqdfmbU_KBpD-CuUh-4" value="" style="ellipse;whiteSpace=wrap;html=1;" vertex="1" parent="1">
          <mxGeometry x="310" y="273" width="250" height="90" as="geometry" />
        </mxCell>
        <mxCell id="HDesqdfmbU_KBpD-CuUh-9" value="" style="ellipse;whiteSpace=wrap;html=1;" vertex="1" parent="1">
          <mxGeometry x="315" y="390" width="250" height="90" as="geometry" />
        </mxCell>
        <mxCell id="HDesqdfmbU_KBpD-CuUh-10" value="" style="ellipse;whiteSpace=wrap;html=1;" vertex="1" parent="1">
          <mxGeometry x="315" y="510" width="250" height="90" as="geometry" />
        </mxCell>
        <mxCell id="HDesqdfmbU_KBpD-CuUh-11" value="" style="ellipse;whiteSpace=wrap;html=1;" vertex="1" parent="1">
          <mxGeometry x="315" y="640" width="250" height="90" as="geometry" />
        </mxCell>
        <mxCell id="HDesqdfmbU_KBpD-CuUh-12" value="&lt;h1&gt;Perpus Digital&lt;/h1&gt;&lt;div&gt;&lt;br&gt;&lt;/div&gt;" style="text;html=1;strokeColor=none;fillColor=none;spacing=5;spacingTop=-20;whiteSpace=wrap;overflow=hidden;rounded=0;" vertex="1" parent="1">
          <mxGeometry x="340" y="210" width="190" height="120" as="geometry" />
        </mxCell>
        <mxCell id="HDesqdfmbU_KBpD-CuUh-14" value="Pustakawan" style="shape=umlActor;verticalLabelPosition=bottom;verticalAlign=top;html=1;outlineConnect=0;" vertex="1" parent="1">
          <mxGeometry x="700" y="363" width="90" height="160" as="geometry" />
        </mxCell>
        <mxCell id="HDesqdfmbU_KBpD-CuUh-15" value="Pengunjung" style="shape=umlActor;verticalLabelPosition=bottom;verticalAlign=top;html=1;outlineConnect=0;" vertex="1" parent="1">
          <mxGeometry x="20" y="360" width="90" height="160" as="geometry" />
        </mxCell>
        <mxCell id="HDesqdfmbU_KBpD-CuUh-16" value="&lt;h2&gt;from pengunjung&lt;/h2&gt;" style="text;html=1;strokeColor=none;fillColor=none;align=center;verticalAlign=middle;whiteSpace=wrap;rounded=0;fontStyle=0;fontFamily=Helvetica;" vertex="1" parent="1">
          <mxGeometry x="205" y="303" width="460" height="30" as="geometry" />
        </mxCell>
        <mxCell id="HDesqdfmbU_KBpD-CuUh-17" value="&lt;h2&gt;Pencarian buku&lt;/h2&gt;&lt;div&gt;&lt;br&gt;&lt;/div&gt;" style="text;html=1;strokeColor=none;fillColor=none;align=center;verticalAlign=middle;whiteSpace=wrap;rounded=0;fontStyle=0;fontFamily=Helvetica;" vertex="1" parent="1">
          <mxGeometry x="210" y="428" width="460" height="30" as="geometry" />
        </mxCell>
        <mxCell id="HDesqdfmbU_KBpD-CuUh-18" value="&lt;h2&gt;Detail Buku&lt;/h2&gt;" style="text;html=1;strokeColor=none;fillColor=none;align=center;verticalAlign=middle;whiteSpace=wrap;rounded=0;fontStyle=0;fontFamily=Helvetica;" vertex="1" parent="1">
          <mxGeometry x="205" y="540" width="460" height="30" as="geometry" />
        </mxCell>
        <mxCell id="HDesqdfmbU_KBpD-CuUh-19" value="&lt;h2&gt;Laporan Statistik&lt;/h2&gt;" style="text;html=1;strokeColor=none;fillColor=none;align=center;verticalAlign=middle;whiteSpace=wrap;rounded=0;fontStyle=0;fontFamily=Helvetica;" vertex="1" parent="1">
          <mxGeometry x="205" y="670" width="460" height="30" as="geometry" />
        </mxCell>
        <mxCell id="HDesqdfmbU_KBpD-CuUh-20" value="" style="endArrow=none;html=1;rounded=0;entryX=0.206;entryY=-0.133;entryDx=0;entryDy=0;entryPerimeter=0;" edge="1" parent="1" source="HDesqdfmbU_KBpD-CuUh-15" target="HDesqdfmbU_KBpD-CuUh-16">
          <mxGeometry width="50" height="50" relative="1" as="geometry">
            <mxPoint x="120" y="320" as="sourcePoint" />
            <mxPoint x="500" y="450" as="targetPoint" />
            <Array as="points">
              <mxPoint x="160" y="280" />
            </Array>
          </mxGeometry>
        </mxCell>
        <mxCell id="HDesqdfmbU_KBpD-CuUh-22" value="" style="endArrow=none;html=1;rounded=0;entryX=0.25;entryY=0;entryDx=0;entryDy=0;" edge="1" parent="1" source="HDesqdfmbU_KBpD-CuUh-15" target="HDesqdfmbU_KBpD-CuUh-17">
          <mxGeometry width="50" height="50" relative="1" as="geometry">
            <mxPoint x="450" y="500" as="sourcePoint" />
            <mxPoint x="500" y="450" as="targetPoint" />
          </mxGeometry>
        </mxCell>
        <mxCell id="HDesqdfmbU_KBpD-CuUh-23" value="" style="endArrow=none;html=1;rounded=0;entryX=0.25;entryY=0;entryDx=0;entryDy=0;" edge="1" parent="1" target="HDesqdfmbU_KBpD-CuUh-18">
          <mxGeometry width="50" height="50" relative="1" as="geometry">
            <mxPoint x="140" y="480" as="sourcePoint" />
            <mxPoint x="500" y="450" as="targetPoint" />
            <Array as="points">
              <mxPoint x="180" y="520" />
            </Array>
          </mxGeometry>
        </mxCell>
        <mxCell id="HDesqdfmbU_KBpD-CuUh-24" value="" style="endArrow=none;html=1;rounded=0;" edge="1" parent="1" target="HDesqdfmbU_KBpD-CuUh-14">
          <mxGeometry width="50" height="50" relative="1" as="geometry">
            <mxPoint x="570" y="670" as="sourcePoint" />
            <mxPoint x="670" y="540" as="targetPoint" />
          </mxGeometry>
        </mxCell>
        <mxCell id="HDesqdfmbU_KBpD-CuUh-25" value="" style="endArrow=none;html=1;rounded=0;exitX=0.948;exitY=0.274;exitDx=0;exitDy=0;exitPerimeter=0;" edge="1" parent="1" source="HDesqdfmbU_KBpD-CuUh-10" target="HDesqdfmbU_KBpD-CuUh-14">
          <mxGeometry width="50" height="50" relative="1" as="geometry">
            <mxPoint x="570" y="540" as="sourcePoint" />
            <mxPoint x="500" y="450" as="targetPoint" />
          </mxGeometry>
        </mxCell>
        <mxCell id="HDesqdfmbU_KBpD-CuUh-26" value="" style="endArrow=none;html=1;rounded=0;" edge="1" parent="1" target="HDesqdfmbU_KBpD-CuUh-14">
          <mxGeometry width="50" height="50" relative="1" as="geometry">
            <mxPoint x="560" y="420" as="sourcePoint" />
            <mxPoint x="500" y="450" as="targetPoint" />
          </mxGeometry>
        </mxCell>
        <mxCell id="HDesqdfmbU_KBpD-CuUh-27" value="" style="endArrow=none;html=1;rounded=0;exitX=0.75;exitY=0;exitDx=0;exitDy=0;" edge="1" parent="1">
          <mxGeometry width="50" height="50" relative="1" as="geometry">
            <mxPoint x="540" y="293" as="sourcePoint" />
            <mxPoint x="730" y="340" as="targetPoint" />
            <Array as="points">
              <mxPoint x="690" y="290" />
            </Array>
          </mxGeometry>
        </mxCell>
        <mxCell id="HDesqdfmbU_KBpD-CuUh-28" value="" style="endArrow=none;html=1;rounded=0;entryX=0.25;entryY=0;entryDx=0;entryDy=0;" edge="1" parent="1" target="HDesqdfmbU_KBpD-CuUh-19">
          <mxGeometry width="50" height="50" relative="1" as="geometry">
            <mxPoint x="110" y="550" as="sourcePoint" />
            <mxPoint x="500" y="450" as="targetPoint" />
            <Array as="points">
              <mxPoint x="160" y="640" />
            </Array>
          </mxGeometry>
        </mxCell>
      </root>
    </mxGraphModel>
  </diagram>
</mxfile>
